<?xml version="1.0" encoding="UTF-8"?>
<svg id="Camada_1" xmlns="http://www.w3.org/2000/svg" version="1.1" viewBox="0 0 32 32">
  <!-- Generator: Adobe Illustrator 29.8.0, SVG Export Plug-In . SVG Version: 2.1.1 Build 160)  -->
  <defs>
    <style>
      .st0 {
        fill: #231f20;
      }

      .st1 {
        fill: #f05a28;
      }
    </style>
  </defs>
  <path class="st0" d="M23.61,28.7c-.21-.09-.42-.2-.64-.32-1.11-.62-5.81-5.23-6.63-5.69s-4.2-.83-5.15-.54,0,1.91,0,1.91c1.08,2.02,2.9,3.28,4.62,4.06-2.52,0-5.7.28-8.22.56-.34.04-.31.54.03.54h15.87c.29,0,.37-.39.11-.51h0Z"/>
  <path class="st0" d="M15.02,19.82s-1.81-5.2-3.75-7.77-5.15-4.7-6.71-4.99c-1.05-.19-1.86.45-1.98,1.82h1.85l1.21,1.44h-2.98c.06.34.16.71.28,1.11.01.05.04.11.06.17h3.28l1.21,1.44h-3.85c.22.41.47.84.74,1.27h3.93l1.21,1.44h-4.16c1.57,2.18,3.39,4.14,4.05,4.42.95.42,3.46.54,4.62.46s.99-.79.99-.79h0Z"/>
  <g>
    <polygon class="st1" points="28.56 22.45 28.57 22.46 28.57 22.45 28.56 22.45"/>
    <path class="st1" d="M25.97,26.78c-.49,0-.98-.08-1.45-.27-1.42-.56-2.31-1.92-3.05-3.31-1.63-3.03-3.07-6.39-4.19-9.74-.48-.01-.95-.02-1.39-.02,1.92,4.18,5.88,13.61,8.87,13.96,2.16.25,3.33-.54,4.03-1.06.19-.14.33-.32.44-.51-.97.51-2.11.93-3.25.93Z"/>
  </g>
  <g>
    <path class="st1" d="M10.97,3.81c-.09-.02-.17-.02-.24-.02-.58.25-1.08.49-1.48.71.68.03,1.54.31,2.3,1.26h.01c1.35,1.71,3.02,4.58,4.98,5.57-2.1-4.19-4.4-7.23-5.58-7.53Z"/>
    <path class="st1" d="M24.44,11.11c-.29-1.02-.98-.3-.98-.3,0,0-2.68-.58-4.74-1.97-2.05-1.39-1.92-5.1-2.16-5.62-.11-.24-.73-.35-1.36-.4-.93-.08-1.85.04-2.74.33-.24.08-.46.16-.68.24,2.06.84,4.59,5.54,5.93,8.31,2.03.31,4.89,0,6.81,1.07.01-.74,0-1.36-.09-1.65Z"/>
  </g>
  <path class="st1" d="M28.57,22.46h0c-.37-.18-.83-.29-1.27-.35-1.09-.16-1.97-.95-2.27-2.02l-.39-1.44c.12.12.25.25.37.37.36.35.73.69,1.11,1.01.35.29.73.56,1.18.68.41.11.83-.05.91-.5.06-.38-.11-.77-.27-1.1-.36-.77-.88-1.46-1.51-2-.57-.49-1.31-.96-2.09-1.06.03-.35.06-.76.09-1.19-1.78-.85-4.05-1.21-6.18-1.34,1.08,3.19,2.46,6.39,4.01,9.27.62,1.15,1.38,2.42,2.59,2.9,1.49.58,3.3-.2,4.58-.97-.05-.89-.24-1.95-.85-2.26ZM24.3,16.51c1.2.22,2.26,1.26,2.86,2.25h.01c.18.29.33.61.45.94.04.11.09.25.06.37-.03.18-.22.09-.34.05-.34-.13-.62-.36-.9-.59-.32-.27-.63-.56-.93-.85-.34-.33-.67-.67-1-1.01-.06-.06-.11-.11-.17-.18-.06-.33-.07-.66-.04-.99ZM28.01,23.23c-2.12-.23-3.41-1.28-3.92-3.18l.52-.14c.45,1.69,1.55,2.58,3.46,2.79l-.06.54Z"/>
</svg>