<?xml version="1.0" encoding="UTF-8"?>
<svg id="Camada_1" xmlns="http://www.w3.org/2000/svg" version="1.1" viewBox="0 0 200 150">
  <defs>
    <style>
      .st0 { display: none; }
      .st0, .st1 { fill: #231f20; }
      .st2 { fill: none; stroke: #f2f1f1; stroke-miterlimit: 10; stroke-width: 1.24px; }
      .st3 { fill: #f05a28; }
    </style>
  </defs>
  <g>
    <path class="st1" d="M42.1,142.86h-20.67l7.39-39.77-9.77,1.66,2.87-14.82,15.3-9.85h16.51s-11.63,62.78-11.63,62.78Z"/>
    <path class="st3" d="M98.85,142.86h-24.5l-2.91-18.19-1.9,2.51-2.91,15.68h-21.51l11.64-62.78h21.55l-3.8,20.29,13.54-20.29h22.76l-19.16,27.04,7.2,35.73h0Z"/>
    <path class="st3" d="M169.31,142.86h-19.81l5.21-28.09-10.59,28.09h-17.79l-.93-28.09-5.13,28.09h-19.77l11.64-62.78h29.06l.85,25.79,10.67-25.79h28.22l-11.64,62.78h0Z"/>
  </g>
  <g>
    <path class="st1" d="M42.98,29.76c0,4.12,2.06,7.77,5.21,9.96l.04-2.61h0c-1.89-1.88-3.06-4.48-3.06-7.35s1.26-5.66,3.27-7.55l.04-2.6c-3.31,2.17-5.5,5.91-5.5,10.15ZM48.28,33.91l.12-8.51c-.78,1.27-1.23,2.76-1.23,4.36,0,1.51.4,2.93,1.11,4.15ZM48.51,17.27l.04-3.08h-15.24l-11.28,30.58h10.57l.39-1.26c.28-.83.59-1.81.93-2.96.35-1.15.65-2.25.9-3.3h2.99c-.11.91-.2,1.94-.28,3.09-.08,1.15-.14,2.18-.18,3.07l-.06,1.36h10.81l.04-2.71c-4.29-2.43-7.18-7.03-7.18-12.3s3.05-10.12,7.53-12.49h.02ZM39.3,22.58l-.12,1.73-.69,6.28h-1.69c.06-.24.35-1.29.87-3.17.51-1.88.78-2.91.82-3.11.09-.35.35-1.23.77-2.62l.1-.37s-.06,1.26-.06,1.26Z"/>
    <path class="st0" d="M70.97,17.87c-1.56-2.24-4.62-3.36-9.18-3.36-3.69,0-6.65.77-8.87,2.3-1.9,1.31-3.29,3.09-4.15,5.34-.32.82-.61,1.81-.87,2.97-.11.49-.23,1.06-.35,1.69l-.22,15.72c.71.79,1.68,1.41,2.91,1.85,1.5.57,3.46.85,5.86.85,6.96,0,11.28-2.54,12.98-7.62.32-.81.64-1.84.95-3.09.32-1.25.68-2.96,1.09-5.13.37-1.98.64-3.51.79-4.6.15-1.08.23-2.04.23-2.86,0-1.57-.39-2.92-1.18-4.07h.01ZM61.28,26.2c-.77,4.75-1.49,8.14-2.16,10.14-.23.72-.73,1.08-1.51,1.08-.44,0-.73-.1-.87-.3s-.21-.42-.21-.67v-.08c.05-1.58.35-3.76.91-6.54.54-2.88.97-4.86,1.29-5.96.17-.52.37-.9.61-1.16s.59-.38,1.07-.38.8.13.95.38c.14.26.21.58.21.96,0,.42-.1,1.26-.29,2.51v.02Z"/>
    <path class="st1" d="M54.3,77.48h-9.45l2.49-13.4-5.05,13.4h-8.49l-.44-13.4-2.45,13.4h-9.43l5.55-29.95h13.87l.41,12.3,5.09-12.3h13.46l-5.55,29.95h0Z"/>
    <path class="st1" d="M88.73,77.48h-31.24l5.55-29.95h30.92l-1.54,8.33h-20.66l-.48,2.62h20.5l-1.47,7.89h-20.5l-.54,2.95h20.96s-1.5,8.16-1.5,8.16Z"/>
    <path class="st1" d="M110.04,47.53l-1.87,10.12-2.24-10.12h-9.12l-5.55,29.95h9.08l1.83-9.91,2.31,9.91h9.32l.56-3.03c-.59-.95-.88-2.09-.88-3.43v-.41c0-1.42.39-4.15,1.16-8.22.33-1.9.63-3.43.89-4.59s.55-2.15.87-2.97c.55-1.45,1.32-2.7,2.31-3.76l.66-3.55h-9.33Z"/>
    <path class="st1" d="M140.98,50.55c-1.56-2.24-4.62-3.35-9.18-3.35-3.69,0-6.65.76-8.87,2.29-.68.47-1.29,1-1.84,1.58l-4.34,23.37c.72,1.16,1.89,2.04,3.49,2.62,1.5.56,3.46.85,5.86.85,6.96,0,11.28-2.54,12.98-7.62.32-.81.64-1.84.95-3.09.32-1.25.68-2.96,1.09-5.13.37-1.98.64-3.51.79-4.6s.23-2.04.23-2.86c0-1.57-.39-2.92-1.18-4.07h.02ZM131.3,58.89c-.77,4.76-1.49,8.14-2.16,10.14-.23.72-.73,1.08-1.5,1.08-.44,0-.73-.1-.87-.3-.14-.2-.21-.42-.21-.67v-.08c.05-1.58.35-3.76.91-6.54.54-2.88.97-4.87,1.29-5.96.17-.51.37-.9.61-1.16.24-.25.59-.38,1.07-.38s.8.13.95.38c.14.26.21.58.21.97,0,.42-.1,1.26-.29,2.51h-.01Z"/>
    <path class="st1" d="M121.09,51.08l-4.34,23.37c-.59-.95-.88-2.09-.88-3.43v-.41c0-1.42.39-4.15,1.16-8.22.33-1.9.63-3.43.89-4.59s.55-2.15.87-2.97c.55-1.45,1.32-2.7,2.31-3.76h-.01Z"/>
    <path class="st1" d="M150.53,77.92c-3.36,0-5.89-.57-7.6-1.7-1.5-.98-2.26-2.35-2.26-4.13,0-.33.05-.91.15-1.74l.33-2.91h9.87c-.1,1.2-.17,2.01-.19,2.45.03.51.37.77,1.04.77.41,0,.72-.1.93-.31.28-.26.42-.64.42-1.16,0-.48-.19-.9-.58-1.26-.39-.37-.88-.72-1.48-1.07l-.46-.29c-.86-.54-1.67-1.06-2.43-1.56-.48-.31-.86-.55-1.14-.71-1.04-.63-1.89-1.29-2.55-1.99-.94-.99-1.41-2.31-1.41-3.97,0-.82.1-1.77.31-2.85.3-1.57,1.02-2.98,2.18-4.23,1.16-1.25,2.65-2.26,4.47-3.01,1.83-.75,3.88-1.13,6.15-1.13,3.36,0,5.84.74,7.44,2.22,1.35,1.27,2.03,2.9,2.03,4.88,0,.12-.1,1.41-.31,3.9h-9.49c.05-.03.13-.16.23-.4.19-.51.29-1.02.29-1.52,0-.13-.02-.31-.05-.54s-.16-.44-.39-.63c-.22-.19-.54-.28-.94-.28h-.23c-.46,0-.8.11-1,.33-.28.28-.42.63-.42,1.04s.21.81.64,1.19.99.78,1.7,1.21c.4.24,1,.64,1.79,1.19.8.55,1.48,1.01,2.04,1.38,1.49.95,2.59,2.02,3.3,3.2.45.78.68,1.75.68,2.89,0,.62-.06,1.29-.19,2.02-.51,2.74-1.86,4.88-4.05,6.42s-5.13,2.31-8.83,2.31h.01Z"/>
  </g>
</svg>
